<mxfile host="app.diagrams.net" modified="2023-06-09T08:46:46.055Z" agent="Mozilla/5.0 (Windows NT 10.0; Win64; x64) AppleWebKit/537.36 (KHTML, like Gecko) Chrome/112.0.0.0 YaBrowser/23.5.1.721 Yowser/2.5 Safari/537.36" version="21.3.8" etag="VAD1tZt2qc5UbxPC8B0Q" type="github">
  <diagram name="Страница 1" id="wu57SnjwSi78H9xIM672">
    <mxGraphModel>
      <root>
        <mxCell id="0" />
        <mxCell id="1" parent="0" />
      </root>
    </mxGraphModel>
  </diagram>
</mxfile>
